<?xml version="1.0" encoding="utf-8"?>
<!-- Generator: Adobe Illustrator 14.0.0, SVG Export Plug-In . SVG Version: 6.00 Build 43363)  -->
<!DOCTYPE svg PUBLIC "-//W3C//DTD SVG 1.0//EN" "http://www.w3.org/TR/2001/REC-SVG-20010904/DTD/svg10.dtd">
<svg version="1.0" id="Layer_1" xmlns="http://www.w3.org/2000/svg" xmlns:xlink="http://www.w3.org/1999/xlink" x="0px" y="0px"
	 width="88.0078125px" height="109.6088867px" viewBox="0 0 88.0078125 109.6088867"
	 enable-background="new 0 0 88.0078125 109.6088867" xml:space="preserve">
<g>
	<path fill="#029346" d="M37.3769531,92.3745117c-0.7314453,0-1.2929688,0.2685547-1.6835938,0.8056641
		c-0.3916016,0.5380859-0.5869141,1.3125-0.5869141,2.3232422c0,1.0117188,0.1953125,1.7861328,0.5869141,2.3242188
		c0.390625,0.5371094,0.9521484,0.8056641,1.6835938,0.8056641s1.2900391-0.2666016,1.6748047-0.8017578
		c0.3847656-0.5341797,0.5771484-1.3095703,0.5771484-2.328125c0-1.0175781-0.1923828-1.7939453-0.5771484-2.328125
		S38.1083984,92.3745117,37.3769531,92.3745117z"/>
	<path fill="#029346" d="M51.0507813,89.253418h-1.5458984v3.6552734h1.5458984
		c0.7695313,0,1.3212891-0.1435547,1.6552734-0.4296875s0.5009766-0.7568359,0.5009766-1.4121094
		c0-0.6484375-0.1669922-1.1132813-0.5009766-1.3935547C52.3720703,89.394043,51.8203125,89.253418,51.0507813,89.253418z"/>
	<path fill="#029346" d="M8.7617188,89.253418H7.2158203v3.6552734h1.5458984c0.7695313,0,1.3212891-0.1435547,1.6552734-0.4296875
		s0.5009766-0.7568359,0.5009766-1.4121094c0-0.6484375-0.1669922-1.1132813-0.5009766-1.3935547
		C10.0830078,89.394043,9.53125,89.253418,8.7617188,89.253418z"/>
	<path fill="#029346" d="M23.5419922,92.1645508c-0.6621094,0-1.1992188,0.1855469-1.6132813,0.5576172
		c-0.4130859,0.3720703-0.6708984,0.9082031-0.7724609,1.6083984h4.4365234c0-0.6494141-0.1884766-1.1728516-0.5673828-1.5703125
		S24.1523438,92.1645508,23.5419922,92.1645508z"/>
	<path fill="#029346" d="M63.9082031,96.3911133c-0.359375,0.2421875-0.5390625,0.5976563-0.5390625,1.0683594
		c0,0.4326172,0.1445313,0.7714844,0.4335938,1.0166016c0.2900391,0.2451172,0.6923828,0.3671875,1.2070313,0.3671875
		c0.6425781,0,1.1835938-0.2304688,1.6220703-0.6914063c0.4394531-0.4609375,0.6591797-1.0390625,0.6591797-1.7324219v-0.390625
		H65.515625C64.8037109,96.0288086,64.2675781,96.1499023,63.9082031,96.3911133z"/>
	<path fill="#029346" d="M80.9208984,0H7.0864258C3.1889648,0,0,3.1889648,0,7.0864258v95.4355469
		c0,3.8974609,3.1889648,7.0869141,7.0864258,7.0869141h73.8344727c3.8974609,0,7.0869141-3.1894531,7.0869141-7.0869141V7.0864258
		C88.0078125,3.1889648,84.8183594,0,80.9208984,0z M12.4921875,100.8374023l-1.7363281-3.5400391
		c-0.3496094-0.7119141-0.7050781-1.1982422-1.0644531-1.4599609c-0.359375-0.2607422-0.8378906-0.390625-1.4355469-0.390625
		H7.2158203v5.390625H3.5419922V86.5913086h5.6103516c1.8769531,0,3.2529297,0.3154297,4.1269531,0.9453125
		c0.875,0.6298828,1.3125,1.625,1.3125,2.9863281c0,0.9414063-0.2275391,1.7148438-0.6826172,2.3183594
		c-0.4550781,0.6044922-1.1396484,1.0498047-2.0556641,1.3359375c0.5019531,0.1142578,0.9521484,0.3740234,1.3496094,0.7783203
		c0.3974609,0.4033203,0.7998047,1.015625,1.2070313,1.8359375l1.9941406,4.0458984H12.4921875z M29.1044922,96.4389648h-7.9863281
		c0.0830078,0.8017578,0.3720703,1.4023438,0.8681641,1.8037109c0.4960938,0.4003906,1.1894531,0.6005859,2.0800781,0.6005859
		c0.71875,0,1.4550781-0.1064453,2.2089844-0.3193359s1.5283203-0.5361328,2.3232422-0.96875v2.6337891
		c-0.8076172,0.3056641-1.6152344,0.5361328-2.4238281,0.6914063c-0.8076172,0.15625-1.6152344,0.234375-2.4228516,0.234375
		c-1.9345703,0-3.4375-0.4921875-4.5087891-1.4746094c-1.0722656-0.9824219-1.6074219-2.3613281-1.6074219-4.1367188
		c0-1.7421875,0.5263672-3.1132813,1.5791016-4.1123047c1.0527344-0.9980469,2.5009766-1.4980469,4.3457031-1.4980469
		c1.6796875,0,3.0234375,0.5058594,4.03125,1.5175781c1.0087891,1.0107422,1.5126953,2.3632813,1.5126953,4.0546875V96.4389648z
		 M41.890625,99.5444336c-0.8466797,1.046875-1.9277344,1.5703125-3.2441406,1.5703125
		c-0.7441406,0-1.4033203-0.1484375-1.9755859-0.4443359s-1.09375-0.7548828-1.5644531-1.3789063v5.6113281h-3.4160156V90.1508789
		h3.4160156v1.5644531c0.4707031-0.6230469,0.9921875-1.0830078,1.5644531-1.3789063
		c0.5722656-0.2949219,1.2314453-0.4433594,1.9755859-0.4433594c1.3164063,0,2.3974609,0.5234375,3.2441406,1.5693359
		c0.8457031,1.046875,1.2685547,2.3935547,1.2685547,4.0410156C43.1591797,97.1518555,42.7363281,98.4985352,41.890625,99.5444336z
		 M19.7568359,52.1821289c0-6.6962891,2.7148438-12.7568359,7.1025391-17.1445313l17.1445313-17.1455078l17.1455078,17.1459961
		c4.3876953,4.387207,7.1015625,10.4487305,7.1015625,17.144043c0,13.3916016-10.8564453,24.2470703-24.2470703,24.2470703
		S19.7568359,65.5737305,19.7568359,52.1821289z M54.78125,100.8374023l-1.7363281-3.5400391
		c-0.3496094-0.7119141-0.7050781-1.1982422-1.0644531-1.4599609c-0.359375-0.2607422-0.8378906-0.390625-1.4355469-0.390625
		h-1.0400391v5.390625h-3.6738281V86.5913086h5.6103516c1.8769531,0,3.2529297,0.3154297,4.1269531,0.9453125
		c0.875,0.6298828,1.3125,1.625,1.3125,2.9863281c0,0.9414063-0.2275391,1.7148438-0.6826172,2.3183594
		c-0.4550781,0.6044922-1.1396484,1.0498047-2.0556641,1.3359375c0.5019531,0.1142578,0.9521484,0.3740234,1.3496094,0.7783203
		c0.3974609,0.4033203,0.7998047,1.015625,1.2070313,1.8359375l1.9941406,4.0458984H54.78125z M70.7353516,100.8374023h-3.4443359
		V99.253418c-0.4580078,0.6494141-0.9736328,1.1210938-1.5458984,1.4169922s-1.2695313,0.4443359-2.0898438,0.4443359
		c-1.1064453,0-2.0058594-0.3232422-2.6953125-0.96875c-0.6904297-0.6455078-1.0351563-1.4833984-1.0351563-2.5146484
		c0-1.2529297,0.4306641-2.171875,1.2929688-2.7578125c0.8613281-0.5849609,2.2148438-0.8769531,4.0595703-0.8769531h2.0136719
		v-0.2675781c0-0.5410156-0.2138672-0.9365234-0.6396484-1.1875c-0.4257813-0.2519531-1.0908203-0.3769531-1.9941406-0.3769531
		c-0.7314453,0-1.4121094,0.0732422-2.0419922,0.21875c-0.6298828,0.1464844-1.2148438,0.3662109-1.7558594,0.6591797v-2.6054688
		c0.7314453-0.1777344,1.4658203-0.3134766,2.2041016-0.4052734c0.7382813-0.0927734,1.4755859-0.1386719,2.2138672-0.1386719
		c1.9277344,0,3.3193359,0.3798828,4.1748047,1.140625c0.8554688,0.7597656,1.2832031,1.9960938,1.2832031,3.7070313V100.8374023z
		 M84.1132813,99.5444336c-0.8466797,1.046875-1.9277344,1.5703125-3.2441406,1.5703125
		c-0.7441406,0-1.4033203-0.1484375-1.9755859-0.4443359s-1.09375-0.7548828-1.5644531-1.3789063v5.6113281h-3.4160156V90.1508789
		h3.4160156v1.5644531c0.4707031-0.6230469,0.9921875-1.0830078,1.5644531-1.3789063
		c0.5722656-0.2949219,1.2314453-0.4433594,1.9755859-0.4433594c1.3164063,0,2.3974609,0.5234375,3.2441406,1.5693359
		c0.8457031,1.046875,1.2685547,2.3935547,1.2685547,4.0410156C85.3818359,97.1518555,84.9589844,98.4985352,84.1132813,99.5444336z
		"/>
	<path fill="#029346" d="M79.5996094,92.3745117c-0.7314453,0-1.2929688,0.2685547-1.6835938,0.8056641
		c-0.3916016,0.5380859-0.5869141,1.3125-0.5869141,2.3232422c0,1.0117188,0.1953125,1.7861328,0.5869141,2.3242188
		c0.390625,0.5371094,0.9521484,0.8056641,1.6835938,0.8056641s1.2900391-0.2666016,1.6748047-0.8017578
		c0.3847656-0.5341797,0.5771484-1.3095703,0.5771484-2.328125c0-1.0175781-0.1923828-1.7939453-0.5771484-2.328125
		S80.3310547,92.3745117,79.5996094,92.3745117z"/>
</g>
</svg>
